<mxfile host="app.diagrams.net" agent="Mozilla/5.0 (Windows NT 10.0; Win64; x64) AppleWebKit/537.36 (KHTML, like Gecko) Chrome/133.0.0.0 Safari/537.36" version="26.0.15">
  <diagram name="PÃ¡gina-1" id="Ek_FiDqtZYDc1E2z1fYu">
    <mxGraphModel grid="1" page="1" gridSize="10" guides="1" tooltips="1" connect="1" arrows="1" fold="1" pageScale="1" pageWidth="827" pageHeight="1169" background="light-dark(#ffffff, #121212)" math="0" shadow="0">
      <root>
        <mxCell id="0" />
        <mxCell id="1" parent="0" />
        <mxCell id="2wHnhYH7_r9TxnD5FTeV-6" value="" style="rounded=0;whiteSpace=wrap;html=1;" vertex="1" parent="1">
          <mxGeometry x="-110" y="-70" width="1000" height="700" as="geometry" />
        </mxCell>
        <mxCell id="2wHnhYH7_r9TxnD5FTeV-2" value="" style="rounded=0;whiteSpace=wrap;html=1;" vertex="1" parent="1">
          <mxGeometry x="-20" y="30" width="840" height="480" as="geometry" />
        </mxCell>
        <mxCell id="sMe7kPZI5gF5dQ6jvcwr-1" value="&lt;font style=&quot;font-size: 13px;&quot;&gt;&lt;br&gt;&lt;/font&gt;&lt;h2 style=&quot;font-weight: 600; margin: 0px 16px 0px 0px; white-space: nowrap; overflow: hidden; text-overflow: ellipsis; line-height: 28px; flex: 0 1 auto; color: rgb(250, 249, 248); font-family: az_ea_font, &amp;quot;Segoe UI&amp;quot;, az_font, system-ui, -apple-system, BlinkMacSystemFont, Roboto, Oxygen, Ubuntu, Cantarell, &amp;quot;Open Sans&amp;quot;, &amp;quot;Helvetica Neue&amp;quot;, sans-serif; font-style: normal; font-variant-ligatures: normal; font-variant-caps: normal; letter-spacing: normal; orphans: 2; text-indent: 0px; text-transform: none; widows: 2; word-spacing: 0px; -webkit-text-stroke-width: 0px; background-color: rgb(27, 26, 25); text-decoration-thickness: initial; text-decoration-style: initial; text-decoration-color: initial;&quot; aria-describedby=&quot;4a65d367-0630-4ada-bf45-1a3b10c7a0e8&quot; id=&quot;4a65d367-0630-4ada-bf45-1a3b10c7a0e9&quot; class=&quot;fxs-blade-title-titleText msportalfx-tooltip-overflow&quot;&gt;&lt;font style=&quot;font-size: 13px;&quot;&gt;2025-2TDSPZ-PAULO-ANDRE&lt;/font&gt;&lt;/h2&gt;&lt;h2 style=&quot;font-weight: 600; margin: 0px 16px 0px 0px; white-space: nowrap; overflow: hidden; text-overflow: ellipsis; line-height: 28px; flex: 0 1 auto; color: rgb(250, 249, 248); font-family: az_ea_font, &amp;quot;Segoe UI&amp;quot;, az_font, system-ui, -apple-system, BlinkMacSystemFont, Roboto, Oxygen, Ubuntu, Cantarell, &amp;quot;Open Sans&amp;quot;, &amp;quot;Helvetica Neue&amp;quot;, sans-serif; font-style: normal; font-variant-ligatures: normal; font-variant-caps: normal; letter-spacing: normal; orphans: 2; text-indent: 0px; text-transform: none; widows: 2; word-spacing: 0px; -webkit-text-stroke-width: 0px; background-color: rgb(27, 26, 25); text-decoration-thickness: initial; text-decoration-style: initial; text-decoration-color: initial;&quot; aria-describedby=&quot;4a65d367-0630-4ada-bf45-1a3b10c7a0e8&quot; id=&quot;4a65d367-0630-4ada-bf45-1a3b10c7a0e9&quot; class=&quot;fxs-blade-title-titleText msportalfx-tooltip-overflow&quot;&gt;&lt;font style=&quot;font-size: 13px;&quot;&gt;-CARMINATI-RM557881&lt;/font&gt;&lt;/h2&gt;&lt;div&gt;&lt;br&gt;&lt;/div&gt;" style="image;aspect=fixed;html=1;points=[];align=center;fontSize=12;image=img/lib/azure2/general/Subscriptions.svg;" vertex="1" parent="1">
          <mxGeometry x="389.78" y="-23.999999999999996" width="40" height="64.55" as="geometry" />
        </mxCell>
        <mxCell id="2wHnhYH7_r9TxnD5FTeV-4" value="" style="rounded=0;whiteSpace=wrap;html=1;" vertex="1" parent="1">
          <mxGeometry x="100" y="200" width="630" height="220" as="geometry" />
        </mxCell>
        <mxCell id="2wHnhYH7_r9TxnD5FTeV-1" value="rg-dev" style="image;aspect=fixed;html=1;points=[];align=center;fontSize=12;image=img/lib/azure2/general/Resource_Groups.svg;" vertex="1" parent="1">
          <mxGeometry x="160" y="170" width="68" height="64" as="geometry" />
        </mxCell>
        <mxCell id="2wHnhYH7_r9TxnD5FTeV-5" value="" style="shape=image;verticalLabelPosition=bottom;labelBackgroundColor=default;verticalAlign=top;aspect=fixed;imageAspect=0;image=data:image/png,iVBORw0KGgoAAAANSUhEUgAAAGAAAABgCAYAAADimHc4AAAS00lEQVR4Ae2bCVhUV5qGr2sVRdWt0qSzdM90T/dkoiISUVBRO6FFAdlccY0KKISYRGMSBZfYGOOKCrKICIoLRgVlVUBEUeOadGc6ovZMOomyiCCgoGa6J0b/ec6599x76tYKVQXVmfJ5vudUWcW9577ff77z3ypgGMc/BwEHAQcBBwEHAQcBBwEHAQcBBwEHAQcBBwEHAQcBBwEHgc4i4B3XUxOwIU7tu7a6j++aZy/MTISBaRdh9JePracvHsNooqsPn426+vD2qC8efRyaAz066zLt9jyagM0ZfcZvBI3fOtCMWwNqn4+BfWMZDEgst8wAApwfR119BFq68ghGXnmUbrdgOmNiz/tv6tdn/JanfcZvAo3fetD4rgXN2D+C2jsW+vqthJGXWttvAgVeCzgy4IpElx4+HXXhYb/OuFa7PEffwC1r+gRugT6B8dDHfyNofNeBZmwcqMesAvb3H4DbnsvmGUBBH/2FbqVrgb/8CEZhPYSRlx/CyIttcXYJpzMmpQ6Mv9kncCtgBWwCjT+3CtQ+q4F9IwZ+/e4u4wZQ4I1WuwD9EQf90kMYycvr0sP/6oxrtbtz9AlJdNMEbQNN0FbQIBMC4kGDVgHeC+JA/YfloPGJgZGX7mubQENvT7VT0DH8i6j6OXldejzI7gDZekLqwIRPOQOQCbwRAZtAjfaCcZ8AXgWvL4VBGZfEDgbDl0SMNNuFaucjhgZPQcfwLzyEkRfaYMTFtrW2vl67O74meNs3muAE0AQRbQNNYDyox28Etd86YMfFAesdA//6Tjo2wGjEoM2VB49znYaOHtPgMXQOvNeFNvD6vA1GnG/71u4A2XJCmpAkd01wInBKAMGIwK2gHr8Z1P7rQT3uE2DHrAK1TwyMON/CtZDSLqYD1U6gI/CCzreB17kH7ra8Zrs6tjp4+wbRAGIEGvlV4L8R1L6fAjv2j6B6Yym47rwgtpAdhc5XuxZ0BJ7obOt6u4Jky8loQpL+pgnZDoKE1ZCIN2R1AFoF64D1/QRY7+XwL9E7LYoYATqqegIcV30reJ1rhRHnWsHrbOt3DEA3W163XRybDU70VIckAZJgAG1G0DZQB8SDmqwCdGc8NgaGn20WWkdpF0NvqAYjxgD4EWdbgWhYZauHXUCy5STUE1I2qyckg3pCEicdMxJxa4pXAd6M14DKOwZcUs9zBuhsqG2AoZuKGFTlfLWjiifQ8VjZCiMqW2H4mdbNtrx2Ozg2dGNDUm5xBiATiCRmoFWAO6INwPqtBXbMSvhVVJrYzfDto8lqNwYdVT4PfkTlAxhxBqvmZx1D7OQdI9QTUwBrQgplADGCXxnBicDijgjdF6DNeDWofZbDiIp77a92KmLoaufgc+CHn3kAWKfR87bhdlCptpkCOyl1m3piKmcAMQKNOmYkgTo4AdjAeGD9N4DKdy2o/rAcBiSd1W4dDeW6gYjRCx3BPy1qWMWDrba5+i4/KnRjJ6ZUqychA2jxK4IYQsxAqyBoK7ABm4D1Xwcqn1Xwy8g0g12MTq7rjxiu0iXQsQEVD2B4xX0YXn6/9mcZQ6rJaaPYSTtArSXaCMnKmJAEbFACsAGbgfVfDyp0Z+yzEoaXN+LNVNhQ2xkxdLUPx9B58BX3YdgpTp6nW0Z2eb1aewLslLTt7KQ04LQDTJuRDOoQcRWo/D4F5ZgV0D/hDO7b9XUx5kSMFPpwHjqBP6z8PniWtSRa+/q79nhxcd3Vk3bWsZPTQJBBM1JBiKmQJGDxXsCvgrGr4eX5O8QWUreLMR0xKGb0QEfgBZ1sqWfioHvXQrPi2ZWTd77OTt4J2tJvhlZETUwGNdkLxm8Ele8noBq7EjxL6vkWUreLMSdicLXTwNHjk0gtosru/96KCLr2UOyU9BR2SjpwkhqBnhsyIxXfrJFVoPJfB0qfVdAvvkKsdOmGKsl1o9Uuge5Z1oLiB2tYyf3krqVmrbPHxXVnp+yqZ6fs4g0gRqDRDDMmpIAK7wVbgEWrYFwcvBSRqtU6anUx5kUMVekidAy/tAU8S1vAo7Tl7s/ityaUoRlj2Km7AAubgIxohxmTUoGdkASq4ARQBcSD0m8tqMauAo/iOyDdUIWNFGW8iYghlU5DR+CxSprBs6QZPEqbvK1Vh112HHZqRppqagYQtd+MNGAncqtAFbQFVAEbQemzGl7ddIrr241tqEYiRgc8Dx2Bx/BPNIPn8eYdXQbOKicOzemhCt3dqArNFAwQjcjgVgVaHaZWxsRUUOFVsA1UAZtB6bsGXgxLEfp23WqnN1P9EcNVOwebhu5xohkEFTff866EnlZh0RUHUYdmjFOF7gZsADKBiFoRyBAWy0hMoU0arYLgRFAFxoMSbcbjPoYh+TVi1BirdhItZKSq3QNFDQ39eDN4CGpCq2BsV7CzyjlV0zIzOAOQCXqMMHtl7AR2ErUKAjeBcuxqeGX9SXEzPSmpdNTNEOBopKCTiNEPvgk8iikVNf2T/vacd1xP1bQ991TT9gAnYgIZqRVhzsqYvBNUeBUkcKvAby28MC8FhlGto06ul5qIGKrSPY6L0IcWN8HQIl6FTU1D06GXVSqyMw/CzszyV03L4uETE8hITCCjGWag+wiyCoK2gnL8BhRDzR4lLQ1alS6pdlMRQ1e7FnhkQCHSPRhS0OjXmeysci7n6Xv3KKdngYrIYjN2gWpyGihxR4RWwWZw9ovL8ixtTqVbRxI1WvGCMp6udipidKBT4BH8oQX3YEh+w26rQOm0g0Sl93KevrdFOX0vcMoCq5gxdRcoJ6WCcsJ2UAZtAedxG3xRr24WdEMRI0YNrnYMnQeP4SMD8hofuORA707jZ+mJ2Bl7A5Uz9gGWYIIVzEDdE14FyaAM2tbIhOb0QB+aeZQ03xEqXqh0VPVirqOo0al2HDFczJBqF6DjykfVz8nj6L0AS7l02s+rZu7fJxhAjECjxWZkgmpKOl4FipDtwk2SR0lzkiURg6AL4HngBPyQvEa0AsA9r3FvpwG06ETjk2TOM/e1KmfuB+UMIn41WGwG2rQzQIlWweTE18k8hxbdG01Xu06lS3NdGjEGoBP4Q441wuC8hjbvrFtyck67HVUzDoQoZx4ATvsBG2HUDBJN9Ghkz0D3E1PS65i4OPHzeoBuHsWN1Trg2xExAmy+4hF0JHeio40w5GhDsN2CJxNzmnUgWzSAGIFG65mhnJqRQM5HRo+ipgSqdxc3VD5eTEUMNkAPdPejjcCpAQbnNhwg57PPMSxLrpiZ3eY8KxuIbGJG6G4vKQD34hYvoYPpQMTQlU5Dd89tAKIhOXcfeuXUOknPbTfPlbMOTnaedRBEiUYgQ6xixrS9NQyj53c4AboNLWi6LVS6pIsxJ2JIpRPgwpjTAIOJjjROtBvg0ok4zz542Hn2Z+A8+yAnG5jhPHOfwV8fdC9s3CJ0L2RjJZmORhMRIwBHVU+Ak/FIAwxGOlT/mfS67eN5VLFCMfvgI84AZAKRdc1QTM/yNHTBHvnNw7ABNHQevDkRgw0gwNFIoB+5C4ORDiPVP3bb3+BsaA5d9v/KOYdDnd88BFizD1EGECMsXxnOM/Z9rzd+qKt2P9bwrfENVcx0oeJp6AJ4GjqBfxcGH7oLbofuTqVOaR8PFW8eyXV+8zBw4o1AhphthvZ+oW/PcJ65f4Opqx16rHGjWdWuFzqqej3gD92F1ygNyr5zxNQ8Ovd1FD9zjjxWzDkMCsEEZAZlhBXMUMzYZ/LPiIbkNA011MWYFzFitdPQX/vsLrz2WT2W28H6H1xy7ik7F7KRsznNOTxDMecIaMu6ZihmHTD7D+ncc+q/EeLF4Iaqp9JRxlOVjg3goWP4B+vhNaLsO9ONIOnclxRv5uQp5uaAYg6S1Aj03HIzlLOzPzX3qobk1q8z2MWYETF0tUvBu2XXA5Lrwbqj5s7Hpu97PqJQpZib+z/YAGQCkRlmOM3LA1lkiVnq/v6Vj5jYG6E6iqmaxiz983RmyZczmMUXZjHR5XP6rrywGvftersY0xEjhY6qnoDH44E74Hbgzt+HZ7ewNoVrzsGd5+XOVszNBW1JjdBdGfLwfGBirgETe90yoWN89GdgllwBZtHnwCw8BUzEMeif+Q3VOorQzY4YKfRsDB2B57T/DgzaXz/LHEY2fY9iXm6hYt5REGSmGbKoMsvA08Yt/U9gPvwSmPcvAvNuJTCRRfBS3Fm+b9eX6+KGKq12rUpHcUOAk3H/HXDjNTCrtsCmcE0efHY26zT32N+d5h0TDTDXjLm50P3DP1nHhGVfA4OO9f5lYN47B0x0KcjfLdJqHY3luoGIEeFT0Aehyt9HVPePoenfqU1ystUb5OF585zCjoGgecegXWaEHYUeS65abgKJoQ+uUjGUB/3S/1toHaWVrgNdT8SQSpdAh0H76mDQXk6uWXVzbMXX5HHlc/NPOIXlgShzzJDuF0ehx+JLlpugJ4ZeXH2GM4C0jjq5bjxixEpHFS9CJ/AHZdWB297aYpOgbPEGTVi+xik8/3+dwvMpA/SYwa8K/SuDN2NeLvRcdNEyE1AMoc2YiiHZ24VC366V7STPyWg4YoRKp6Ej8EiuWXUwcE/djwMza/vagrHRY8rDCiOcwgsAG4BMINJaEcQQfmWYMKPne+c7bgIdQ4tJN5QHr+74K99C6nYx5kQMBs8DJ9Bd99SB655aQYN214QZhWWLF+URBWVOEcgAWpQRHVwZvd6p7LgJOjFUDC+sPC1upqji6WoXNlPDEWMIuuvuWiAamFlTYgvGBo+pmpv3nDy88EeniELgVADWNKP3wtMdM0FfDC0s0oau3cWYjBitaqegY/iZteCaWQsumbU/9t9X95xBYNZ+QR5RHCmPKAJ5RKEga5vR4+3Tt5iY60/adaOGYmjpV8CgbgjHUAUwEXnwHyk36dZRd0M1ETGk0mnoAzNrASujBgZm1IBrRu18a3M2eDz5guJT8vlFIMgGZsjDjsYyy29OZGKr/tEuE/TE0C+Wn9aFjtpIajPVqnSU7waqnYaOwGPtqoEBu2pOGgRmzRdUUcXPyyOKnsjnF4MoM80wtl9I9gzZ/MJX8LxX3PBhYqoemW0CiSH00QR/U9Y7uoCDTUHXm+3GoKOKJ8DRuEtbLunVT9zSvn3Bmqz1HksWWRwtX3AcONEmoMeUEeixsZVhxAx5eP4XWidfdmMYs7yqxSwTDMTQK4nXhdbRaLXzuS6NGAE+DT69Bgam14ALVjW4pFW/pTVvWzyRR544IxpAjECjNc0o+Ehn7ituujKx1+6YZcKyv0g+GyqG52MrhLYRt5DGqp2udD3VrgV9ZzW4EKVVV+jM25r/4bzwxEvyyBM/ySNPgHwBEW0CeWyJGfnP5GH5/6Z33rHXfsfEXv/OpAl0DC06D0x0GfSKLsQdi1a2G6t2utLRY6HSUcVT0BH8NE4Dd9z+yTXj+xf1zt0a/ymLKnlX/Pz+BGAjrGyGPLzgstG5rrj5MrOsqsqoCfpiaH4+/PvWa5wJpIOR5rq02qURQyqdjDx4bMCOahiAlHp7odH5W/KibEHZOVlUqZ4vUKxnhlN4wRKTc1xyoy8Tc+2KURP0xdCycq3WUW+ua1W7pNKpaidV74LB34YBO24j+DAg+fZZk/PvyBsUUWUvy6JKf8IGIBOIdL7RMtMMrS6KbOCFz+RRRb82a35xN5RMzPUKgyaQjybwFzV8DEUVcN2LtNK1oBuOGG3oqOIp8Ag+Usqtp/2Sa35p1jW0502yt8oWoy9RRFEmWMkMWcTxC+2ZE/Pe32RMTFW+fhOqdG/K5ufDbzd/LbaQHYkYfdAxeASfk0ty9Xvtug5z3tw7+uRF2VsnQfZWGSejZuj7ntf0ypAtKF5kzly03hNX2ZOJvbZXrwnSGIo6Ds8tLac21A5EDKl0CXQEv3/yLawBSbc/15qjxU/er9TIok4+5QxAJhBZ0Yz5x586RRf/qmNzhW5M7I1EHRP0xJDs7SKDXYx5ESNWOgddBI8NSLoF/ZO+f/o7a35T1jvqZP/e0eWAJEMSDCBGWL4yZJEnzncMPvVTsddjtE2QxNA7p6F7VCHdtwstJLeZGsh1abUn64OOwIt6NflWf2pmFj6M+lOv3tGnfugdfQqbYBMzokqtcxcZU7WYia16JhghxNAl/IW94oNKETpqI6VdjBkRI1a6CJyG3y/p+8feKBqt+U8WXf4hZwAygYhbFRavjAUl15jQHOv9GWjM9bnCJ6lUDHVb9Dn8Jv6vPHQD1c5vpGRD7W9GtdPw0eMBybdMt9IdMadX9KmI3m9X/KV3dPkT0QSLzLgniyzNVIaX/KIj8zH6MzE3RjOx188zMVU/dFv2FShWfAW/2fKN/taxAxEjhd4v6faT/km3vu6XfCvc6LwcLzoIOAg4CDgIOAg4CDgIOAg4CDgIOAg4CDgIOAg4CDgI/L8l8H8C2px9LE/yowAAAABJRU5ErkJggg==;" vertex="1" parent="1">
          <mxGeometry x="-96" y="-120" width="96" height="96" as="geometry" />
        </mxCell>
        <mxCell id="2wHnhYH7_r9TxnD5FTeV-7" value="&lt;font style=&quot;font-size: 16px;&quot;&gt;VM-linux&lt;/font&gt;" style="image;aspect=fixed;html=1;points=[];align=center;fontSize=12;image=img/lib/azure2/compute/Virtual_Machine.svg;" vertex="1" parent="1">
          <mxGeometry x="310" y="268" width="79.78" height="74" as="geometry" />
        </mxCell>
        <mxCell id="2wHnhYH7_r9TxnD5FTeV-9" value="&lt;font style=&quot;font-size: 16px;&quot;&gt;db-dev&lt;/font&gt;" style="image;aspect=fixed;html=1;points=[];align=center;fontSize=12;image=img/lib/azure2/databases/Azure_Database_PostgreSQL_Server.svg;" vertex="1" parent="1">
          <mxGeometry x="510" y="268" width="48" height="64" as="geometry" />
        </mxCell>
      </root>
    </mxGraphModel>
  </diagram>
</mxfile>
